<mxfile host="app.diagrams.net" modified="2023-04-27T19:54:24.332Z" agent="Mozilla/5.0 (Windows NT 10.0; Win64; x64) AppleWebKit/537.36 (KHTML, like Gecko) Chrome/112.0.0.0 Safari/537.36" etag="drqlrD2lY_-wQh19iGzs" version="21.1.2" type="device">
  <diagram name="Page-1" id="0mMBg5uom21WpQdQVt9-">
    <mxGraphModel dx="3226" dy="1992" grid="1" gridSize="10" guides="1" tooltips="1" connect="1" arrows="1" fold="1" page="1" pageScale="1" pageWidth="827" pageHeight="1169" math="0" shadow="0">
      <root>
        <mxCell id="0" />
        <mxCell id="1" parent="0" />
        <mxCell id="mxhM1-VZTvcmh04vF-AV-21" value="" style="strokeWidth=1;shadow=0;dashed=0;align=center;html=1;shape=mxgraph.mockup.containers.browserWindow;rSize=0;strokeColor=#666666;strokeColor2=#008cff;strokeColor3=#c4c4c4;mainText=,;recursiveResize=0;" vertex="1" parent="1">
          <mxGeometry x="-944" y="-1040" width="1060" height="912" as="geometry" />
        </mxCell>
        <mxCell id="mxhM1-VZTvcmh04vF-AV-22" value="Country.Info" style="strokeWidth=1;shadow=0;dashed=0;align=center;html=1;shape=mxgraph.mockup.containers.anchor;fontSize=17;fontColor=#666666;align=left;whiteSpace=wrap;" vertex="1" parent="mxhM1-VZTvcmh04vF-AV-21">
          <mxGeometry x="60" y="12" width="110" height="26" as="geometry" />
        </mxCell>
        <mxCell id="mxhM1-VZTvcmh04vF-AV-23" value="Country.Info" style="strokeWidth=1;shadow=0;dashed=0;align=center;html=1;shape=mxgraph.mockup.containers.anchor;rSize=0;fontSize=17;fontColor=#666666;align=left;" vertex="1" parent="mxhM1-VZTvcmh04vF-AV-21">
          <mxGeometry x="130" y="60" width="250" height="26" as="geometry" />
        </mxCell>
        <mxCell id="mxhM1-VZTvcmh04vF-AV-29" value="&lt;span style=&quot;font-size: 40px;&quot;&gt;{Country name}&lt;/span&gt;" style="html=1;shadow=0;dashed=0;shape=mxgraph.bootstrap.rrect;rSize=5;strokeColor=none;html=1;whiteSpace=wrap;fillColor=#88D4AB;fontColor=#474E4F;align=left;spacing=15;fontSize=14;verticalAlign=top;spacingTop=40;" vertex="1" parent="mxhM1-VZTvcmh04vF-AV-21">
          <mxGeometry x="130" y="382" width="800" height="448" as="geometry" />
        </mxCell>
        <mxCell id="mxhM1-VZTvcmh04vF-AV-30" value="" style="shape=line;html=1;shadow=0;dashed=0;strokeColor=#CED4DA;gradientColor=inherit;fontColor=inherit;fillColor=#E9ECEF;rSize=5;perimeter=none;whiteSpace=wrap;resizeHeight=1;fontSize=14;align=left;spacing=2;labelPosition=center;verticalLabelPosition=bottom;verticalAlign=top;spacingTop=10;" vertex="1" parent="mxhM1-VZTvcmh04vF-AV-29">
          <mxGeometry width="770" height="14.933333333333332" relative="1" as="geometry">
            <mxPoint x="15" y="150" as="offset" />
          </mxGeometry>
        </mxCell>
        <mxCell id="mxhM1-VZTvcmh04vF-AV-31" value="&lt;b&gt;Learn more {google search of country}&lt;/b&gt;" style="html=1;shadow=0;dashed=0;shape=mxgraph.bootstrap.rrect;rSize=5;fillColor=#248277;strokeColor=none;align=center;spacing=15;fontSize=14;fontColor=#ffffff;" vertex="1" parent="mxhM1-VZTvcmh04vF-AV-29">
          <mxGeometry y="1" width="270" height="40" relative="1" as="geometry">
            <mxPoint x="15" y="-80" as="offset" />
          </mxGeometry>
        </mxCell>
        <mxCell id="mxhM1-VZTvcmh04vF-AV-35" value="&lt;font color=&quot;#474e4f&quot;&gt;{flags.png}&lt;/font&gt;" style="html=1;shadow=0;dashed=0;shape=mxgraph.bootstrap.rrect;rSize=5;strokeColor=none;strokeWidth=1;fillColor=#F8F9FA;fontColor=#000000;whiteSpace=wrap;align=center;verticalAlign=middle;spacingLeft=0;fontStyle=0;fontSize=16;spacing=5;" vertex="1" parent="mxhM1-VZTvcmh04vF-AV-29">
          <mxGeometry x="610" y="33.768844221105525" width="146" height="90.0502512562814" as="geometry" />
        </mxCell>
        <mxCell id="mxhM1-VZTvcmh04vF-AV-4" value="&lt;font color=&quot;#474e4f&quot;&gt;List names&lt;br&gt;{altspellings array}&lt;/font&gt;" style="html=1;shadow=0;dashed=0;shape=mxgraph.bootstrap.popover;fillColor=#ffffff;strokeColor=none;dx=35;dy=5;rSize=5;direction=south;whiteSpace=wrap;verticalAlign=bottom;spacing=5;fontSize=10;spacingLeft=5;align=left;" vertex="1" parent="mxhM1-VZTvcmh04vF-AV-29">
          <mxGeometry x="301" y="45.02140703517588" width="200" height="67.53768844221105" as="geometry" />
        </mxCell>
        <mxCell id="mxhM1-VZTvcmh04vF-AV-5" value="&lt;font color=&quot;#f2f2f2&quot;&gt;&lt;b&gt;Alternative Names&lt;/b&gt;&lt;/font&gt;" style="html=1;shadow=0;dashed=0;shape=mxgraph.bootstrap.topButton;rSize=5;fillColor=#248277;strokeColor=none;perimeter=none;whiteSpace=wrap;resizeWidth=1;align=left;spacing=5;" vertex="1" parent="mxhM1-VZTvcmh04vF-AV-4">
          <mxGeometry x="1" width="195" height="25" relative="1" as="geometry">
            <mxPoint x="-195" as="offset" />
          </mxGeometry>
        </mxCell>
        <mxCell id="mxhM1-VZTvcmh04vF-AV-17" value="Info" style="html=1;shadow=0;dashed=0;shape=mxgraph.bootstrap.rrect;rSize=5;fillColor=#56AB91;strokeColor=none;fontSize=14;fontColor=#F2F2F2;fontStyle=1" vertex="1" parent="mxhM1-VZTvcmh04vF-AV-29">
          <mxGeometry x="10" y="210" width="60" height="40" as="geometry" />
        </mxCell>
        <mxCell id="mxhM1-VZTvcmh04vF-AV-18" value="Map" style="fillColor=none;strokeColor=none;fontSize=14;fontColor=#F2F2F2;fontStyle=1" vertex="1" parent="mxhM1-VZTvcmh04vF-AV-29">
          <mxGeometry x="70" y="210" width="70" height="40" as="geometry" />
        </mxCell>
        <mxCell id="mxhM1-VZTvcmh04vF-AV-20" value="&lt;font color=&quot;#474e4f&quot;&gt;{Currency} , {Capital}, {Region}, {Population}, {Timezone} (Optional time in timezone)&lt;/font&gt;" style="strokeColor=none;fillColor=none;whiteSpace=wrap;html=1;align=left;verticalAlign=top;fontSize=14;" vertex="1" parent="mxhM1-VZTvcmh04vF-AV-29">
          <mxGeometry x="10" y="265" width="780" height="80" as="geometry" />
        </mxCell>
        <mxCell id="mxhM1-VZTvcmh04vF-AV-37" value="Timezone" style="fillColor=none;strokeColor=none;fontSize=14;fontColor=#F2F2F2;fontStyle=1" vertex="1" parent="mxhM1-VZTvcmh04vF-AV-29">
          <mxGeometry x="134" y="210" width="70" height="40" as="geometry" />
        </mxCell>
        <mxCell id="mxhM1-VZTvcmh04vF-AV-1" value="Type a Country..&amp;nbsp;" style="html=1;shadow=0;dashed=0;shape=mxgraph.bootstrap.rrect;rSize=5;strokeColor=#CED4DA;html=1;whiteSpace=wrap;fillColor=#FFFFFF;fontColor=#7D868C;align=left;spacing=15;spacingLeft=40;fontSize=14;" vertex="1" parent="mxhM1-VZTvcmh04vF-AV-21">
          <mxGeometry x="130" y="290" width="800" height="40" as="geometry" />
        </mxCell>
        <mxCell id="mxhM1-VZTvcmh04vF-AV-2" value="" style="html=1;shadow=0;dashed=0;shape=mxgraph.bootstrap.leftButton;strokeColor=inherit;gradientColor=inherit;fontColor=inherit;fillColor=#E9ECEF;rSize=5;perimeter=none;whiteSpace=wrap;resizeHeight=1;fontSize=14;" vertex="1" parent="mxhM1-VZTvcmh04vF-AV-1">
          <mxGeometry width="40" height="40" as="geometry" />
        </mxCell>
        <mxCell id="mxhM1-VZTvcmh04vF-AV-36" value="" style="html=1;verticalLabelPosition=bottom;align=center;labelBackgroundColor=#ffffff;verticalAlign=top;strokeWidth=2;strokeColor=#0080F0;shadow=0;dashed=0;shape=mxgraph.ios7.icons.looking_glass;" vertex="1" parent="mxhM1-VZTvcmh04vF-AV-1">
          <mxGeometry x="5" y="5" width="30" height="30" as="geometry" />
        </mxCell>
        <mxCell id="mxhM1-VZTvcmh04vF-AV-38" value="" style="shadow=0;dashed=0;html=1;strokeColor=none;fillColor=#56AB91;labelPosition=center;verticalLabelPosition=bottom;verticalAlign=top;align=center;outlineConnect=0;shape=mxgraph.veeam.globe;" vertex="1" parent="mxhM1-VZTvcmh04vF-AV-21">
          <mxGeometry x="34" y="15" width="20" height="20" as="geometry" />
        </mxCell>
        <mxCell id="mxhM1-VZTvcmh04vF-AV-40" value="" style="group" vertex="1" connectable="0" parent="mxhM1-VZTvcmh04vF-AV-21">
          <mxGeometry x="330" y="160" width="401" height="80" as="geometry" />
        </mxCell>
        <mxCell id="mxhM1-VZTvcmh04vF-AV-33" value="&lt;font style=&quot;font-size: 48px;&quot;&gt;Country.Info&lt;/font&gt;" style="text;html=1;align=center;verticalAlign=middle;resizable=0;points=[];autosize=1;strokeColor=none;fillColor=none;fontFamily=Poppins;fontSource=https%3A%2F%2Ffonts.googleapis.com%2Fcss%3Ffamily%3DPoppins;fontStyle=1" vertex="1" parent="mxhM1-VZTvcmh04vF-AV-40">
          <mxGeometry x="91" y="5" width="310" height="70" as="geometry" />
        </mxCell>
        <mxCell id="mxhM1-VZTvcmh04vF-AV-39" value="" style="shadow=0;dashed=0;html=1;strokeColor=none;fillColor=#56AB91;labelPosition=center;verticalLabelPosition=bottom;verticalAlign=top;align=center;outlineConnect=0;shape=mxgraph.veeam.globe;" vertex="1" parent="mxhM1-VZTvcmh04vF-AV-40">
          <mxGeometry width="80" height="80" as="geometry" />
        </mxCell>
      </root>
    </mxGraphModel>
  </diagram>
</mxfile>
